<svg width="40" height="41" viewBox="0 0 40 41" fill="none" xmlns="http://www.w3.org/2000/svg">
<path id="Arroba" d="M21.4313 0.827104C9.25135 -0.032896 -0.808653 10.0271 0.0513472 22.2071C0.771347 32.7871 10.0113 40.7671 20.6113 40.7671H27.9913C29.0913 40.7671 29.9913 39.8671 29.9913 38.7671C29.9913 37.6671 29.0913 36.7671 27.9913 36.7671H20.6513C13.1913 36.7671 6.35135 31.9271 4.49135 24.7071C1.51135 13.1071 12.3113 2.2871 23.9113 5.2871C31.1513 7.1271 35.9913 13.9671 35.9913 21.4271V23.6271C35.9913 25.2071 34.5714 26.7671 32.9913 26.7671C31.4113 26.7671 29.9913 25.2071 29.9913 23.6271V21.1271C29.9913 16.1071 26.4313 11.5871 21.4713 10.8871C14.6713 9.9071 8.93135 15.7871 10.1513 22.6271C10.8313 26.4471 13.8113 29.6071 17.5913 30.5071C21.2713 31.3671 24.7713 30.1871 27.0713 27.8471C28.8513 30.2871 32.4114 31.5671 35.6713 30.2671C38.3513 29.2071 39.9913 26.4671 39.9913 23.5871V21.4071C39.9913 10.7871 32.0113 1.5471 21.4313 0.827104ZM19.9913 26.7671C16.6713 26.7671 13.9913 24.0871 13.9913 20.7671C13.9913 17.4471 16.6713 14.7671 19.9913 14.7671C23.3113 14.7671 25.9913 17.4471 25.9913 20.7671C25.9913 24.0871 23.3113 26.7671 19.9913 26.7671Z" fill="black"/>
</svg>
