<svg width="36" height="37" viewBox="0 0 36 37" fill="none" xmlns="http://www.w3.org/2000/svg">
<path id="Livro" d="M32 0.771484H4C1.8 0.771484 0 2.57148 0 4.77148V32.7715C0 34.9715 1.8 36.7715 4 36.7715H32C34.2 36.7715 36 34.9715 36 32.7715V4.77148C36 2.57148 34.2 0.771484 32 0.771484ZM20 28.7715H10C8.9 28.7715 8 27.8715 8 26.7715C8 25.6715 8.9 24.7715 10 24.7715H20C21.1 24.7715 22 25.6715 22 26.7715C22 27.8715 21.1 28.7715 20 28.7715ZM26 20.7715H10C8.9 20.7715 8 19.8715 8 18.7715C8 17.6715 8.9 16.7715 10 16.7715H26C27.1 16.7715 28 17.6715 28 18.7715C28 19.8715 27.1 20.7715 26 20.7715ZM26 12.7715H10C8.9 12.7715 8 11.8715 8 10.7715C8 9.67148 8.9 8.77148 10 8.77148H26C27.1 8.77148 28 9.67148 28 10.7715C28 11.8715 27.1 12.7715 26 12.7715Z" fill="black"/>
</svg>
