<svg width="340" height="56" viewBox="0 0 340 56" fill="none" xmlns="http://www.w3.org/2000/svg">
<g id="Frame 7">
<path id="&#194;&#169;Diogo Godoi" d="M93.0425 39.18C90.5038 39.18 88.2711 38.6587 86.3445 37.616C84.4405 36.5507 82.9558 35.0773 81.8905 33.196C80.8251 31.292 80.2925 29.0933 80.2925 26.6C80.2925 24.1067 80.8251 21.9193 81.8905 20.038C82.9558 18.134 84.4405 16.6607 86.3445 15.618C88.2711 14.5527 90.5038 14.02 93.0425 14.02C95.6038 14.02 97.8365 14.5527 99.7405 15.618C101.644 16.6607 103.129 18.134 104.194 20.038C105.26 21.9193 105.792 24.1067 105.792 26.6C105.792 29.0933 105.26 31.292 104.194 33.196C103.129 35.0773 101.644 36.5507 99.7405 37.616C97.8365 38.6587 95.6038 39.18 93.0425 39.18ZM93.3825 34.08C92.4078 34.08 91.5238 33.978 90.7305 33.774C89.9598 33.5473 89.3025 33.1733 88.7585 32.652C88.2145 32.108 87.7951 31.3487 87.5005 30.374C87.2285 29.3767 87.0925 28.1187 87.0925 26.6C87.0925 25.0587 87.2285 23.8007 87.5005 22.826C87.7951 21.8513 88.2145 21.1033 88.7585 20.582C89.3025 20.038 89.9598 19.664 90.7305 19.46C91.5238 19.2333 92.4078 19.12 93.3825 19.12C94.3118 19.12 95.1278 19.188 95.8305 19.324C96.5331 19.46 97.1338 19.6187 97.6325 19.8V21.5H94.0625C93.4505 21.5 92.8951 21.6247 92.3965 21.874C91.9205 22.1007 91.5351 22.5767 91.2405 23.302C90.9685 24.0273 90.8325 25.1267 90.8325 26.6C90.8325 28.0733 90.9685 29.1727 91.2405 29.898C91.5351 30.6233 91.9205 31.1107 92.3965 31.36C92.8951 31.5867 93.4505 31.7 94.0625 31.7H97.9725V33.4C97.4738 33.5587 96.8165 33.7173 96.0005 33.876C95.1845 34.012 94.3118 34.08 93.3825 34.08ZM93.0425 36.8C94.9238 36.8 96.5558 36.4033 97.9385 35.61C99.3438 34.794 100.432 33.6267 101.202 32.108C101.996 30.5893 102.392 28.7533 102.392 26.6C102.392 24.4467 101.996 22.6107 101.202 21.092C100.432 19.5733 99.3438 18.4173 97.9385 17.624C96.5558 16.808 94.9238 16.4 93.0425 16.4C91.1838 16.4 89.5518 16.808 88.1465 17.624C86.7411 18.4173 85.6418 19.5733 84.8485 21.092C84.0778 22.6107 83.6925 24.4467 83.6925 26.6C83.6925 28.7533 84.0778 30.5893 84.8485 32.108C85.6418 33.6267 86.7411 34.794 88.1465 35.61C89.5518 36.4033 91.1838 36.8 93.0425 36.8ZM114.967 38.84C113.698 38.84 112.598 38.7833 111.669 38.67C110.762 38.5793 109.878 38.4093 109.017 38.16V15.04C109.878 14.7907 110.762 14.6207 111.669 14.53C112.598 14.4167 113.698 14.36 114.967 14.36C116.848 14.36 118.424 14.7453 119.693 15.516C120.985 16.2867 121.96 17.5673 122.617 19.358C123.297 21.126 123.637 23.54 123.637 26.6C123.637 29.66 123.297 32.0853 122.617 33.876C121.96 35.6667 120.985 36.9473 119.693 37.718C118.424 38.466 116.848 38.84 114.967 38.84ZM113.097 36.29H114.967C115.874 36.29 116.667 36.018 117.347 35.474C118.05 34.9073 118.594 33.9213 118.979 32.516C119.364 31.1107 119.557 29.1387 119.557 26.6C119.557 24.0387 119.364 22.0667 118.979 20.684C118.594 19.2787 118.05 18.304 117.347 17.76C116.667 17.1933 115.874 16.91 114.967 16.91H113.097V36.29ZM126.864 38.5V21.5H130.944V38.5H126.864ZM126.864 19.46V15.38H130.944V19.46H126.864ZM140.797 38.84C139.323 38.84 138.077 38.5567 137.057 37.99C136.059 37.4007 135.3 36.46 134.779 35.168C134.257 33.876 133.997 32.1533 133.997 30C133.997 27.8467 134.257 26.124 134.779 24.832C135.3 23.54 136.059 22.6107 137.057 22.044C138.077 21.4547 139.323 21.16 140.797 21.16C142.27 21.16 143.505 21.4547 144.503 22.044C145.523 22.6107 146.293 23.54 146.815 24.832C147.336 26.124 147.597 27.8467 147.597 30C147.597 32.1533 147.336 33.876 146.815 35.168C146.293 36.46 145.523 37.4007 144.503 37.99C143.505 38.5567 142.27 38.84 140.797 38.84ZM140.797 36.63C141.318 36.63 141.783 36.4487 142.191 36.086C142.599 35.7007 142.916 35.032 143.143 34.08C143.392 33.1053 143.517 31.7453 143.517 30C143.517 28.232 143.392 26.872 143.143 25.92C142.916 24.968 142.599 24.3107 142.191 23.948C141.783 23.5627 141.318 23.37 140.797 23.37C140.298 23.37 139.833 23.5627 139.403 23.948C138.995 24.3107 138.666 24.968 138.417 25.92C138.19 26.872 138.077 28.232 138.077 30C138.077 31.7453 138.19 33.1053 138.417 34.08C138.666 35.032 138.995 35.7007 139.403 36.086C139.833 36.4487 140.298 36.63 140.797 36.63ZM155.432 45.64C154.594 45.64 153.778 45.5607 152.984 45.402C152.191 45.266 151.534 45.1187 151.012 44.96V43.26H154.752C156.022 43.26 156.985 42.8633 157.642 42.07C158.322 41.2993 158.662 39.9393 158.662 37.99C158.322 38.2393 157.903 38.4433 157.404 38.602C156.906 38.7607 156.362 38.84 155.772 38.84C154.526 38.84 153.438 38.5567 152.508 37.99C151.602 37.4007 150.899 36.46 150.4 35.168C149.902 33.876 149.652 32.1533 149.652 30C149.652 27.8467 149.924 26.124 150.468 24.832C151.012 23.54 151.828 22.6107 152.916 22.044C154.027 21.4547 155.432 21.16 157.132 21.16C158.334 21.16 159.354 21.2507 160.192 21.432C161.054 21.5907 161.904 21.84 162.742 22.18V37.14C162.742 39.18 162.47 40.8233 161.926 42.07C161.405 43.3167 160.6 44.2233 159.512 44.79C158.447 45.3567 157.087 45.64 155.432 45.64ZM156.792 36.46C157.223 36.46 157.597 36.392 157.914 36.256C158.254 36.0973 158.504 35.9387 158.662 35.78V23.54H157.132C156.452 23.54 155.852 23.7213 155.33 24.084C154.832 24.4467 154.435 25.104 154.14 26.056C153.868 26.9853 153.732 28.3 153.732 30C153.732 31.7 153.868 33.0147 154.14 33.944C154.412 34.8733 154.775 35.5307 155.228 35.916C155.704 36.2787 156.226 36.46 156.792 36.46ZM172.44 38.84C170.967 38.84 169.72 38.5567 168.7 37.99C167.703 37.4007 166.944 36.46 166.422 35.168C165.901 33.876 165.64 32.1533 165.64 30C165.64 27.8467 165.901 26.124 166.422 24.832C166.944 23.54 167.703 22.6107 168.7 22.044C169.72 21.4547 170.967 21.16 172.44 21.16C173.914 21.16 175.149 21.4547 176.146 22.044C177.166 22.6107 177.937 23.54 178.458 24.832C178.98 26.124 179.24 27.8467 179.24 30C179.24 32.1533 178.98 33.876 178.458 35.168C177.937 36.46 177.166 37.4007 176.146 37.99C175.149 38.5567 173.914 38.84 172.44 38.84ZM172.44 36.63C172.962 36.63 173.426 36.4487 173.834 36.086C174.242 35.7007 174.56 35.032 174.786 34.08C175.036 33.1053 175.16 31.7453 175.16 30C175.16 28.232 175.036 26.872 174.786 25.92C174.56 24.968 174.242 24.3107 173.834 23.948C173.426 23.5627 172.962 23.37 172.44 23.37C171.942 23.37 171.477 23.5627 171.046 23.948C170.638 24.3107 170.31 24.968 170.06 25.92C169.834 26.872 169.72 28.232 169.72 30C169.72 31.7453 169.834 33.1053 170.06 34.08C170.31 35.032 170.638 35.7007 171.046 36.086C171.477 36.4487 171.942 36.63 172.44 36.63ZM197.956 38.84C195.984 38.84 194.352 38.4887 193.06 37.786C191.791 37.0607 190.839 35.814 190.204 34.046C189.592 32.2553 189.286 29.7733 189.286 26.6C189.286 23.4267 189.581 20.956 190.17 19.188C190.782 17.3973 191.678 16.1507 192.856 15.448C194.058 14.7227 195.531 14.36 197.276 14.36C198.478 14.36 199.554 14.428 200.506 14.564C201.481 14.7 202.218 14.8587 202.716 15.04V16.91H198.296C197.344 16.91 196.494 17.1933 195.746 17.76C194.998 18.304 194.409 19.2787 193.978 20.684C193.57 22.0667 193.366 24.0387 193.366 26.6C193.366 29.1387 193.582 31.1107 194.012 32.516C194.443 33.9213 195.055 34.9073 195.848 35.474C196.642 36.018 197.571 36.29 198.636 36.29H199.486V25.58H203.566V38.16C203.068 38.3187 202.32 38.466 201.322 38.602C200.348 38.7607 199.226 38.84 197.956 38.84ZM213.1 38.84C211.626 38.84 210.38 38.5567 209.36 37.99C208.362 37.4007 207.603 36.46 207.082 35.168C206.56 33.876 206.3 32.1533 206.3 30C206.3 27.8467 206.56 26.124 207.082 24.832C207.603 23.54 208.362 22.6107 209.36 22.044C210.38 21.4547 211.626 21.16 213.1 21.16C214.573 21.16 215.808 21.4547 216.806 22.044C217.826 22.6107 218.596 23.54 219.118 24.832C219.639 26.124 219.9 27.8467 219.9 30C219.9 32.1533 219.639 33.876 219.118 35.168C218.596 36.46 217.826 37.4007 216.806 37.99C215.808 38.5567 214.573 38.84 213.1 38.84ZM213.1 36.63C213.621 36.63 214.086 36.4487 214.494 36.086C214.902 35.7007 215.219 35.032 215.446 34.08C215.695 33.1053 215.82 31.7453 215.82 30C215.82 28.232 215.695 26.872 215.446 25.92C215.219 24.968 214.902 24.3107 214.494 23.948C214.086 23.5627 213.621 23.37 213.1 23.37C212.601 23.37 212.136 23.5627 211.706 23.948C211.298 24.3107 210.969 24.968 210.72 25.92C210.493 26.872 210.38 28.232 210.38 30C210.38 31.7453 210.493 33.1053 210.72 34.08C210.969 35.032 211.298 35.7007 211.706 36.086C212.136 36.4487 212.601 36.63 213.1 36.63ZM227.736 38.84C226.602 38.84 225.594 38.5567 224.71 37.99C223.848 37.4007 223.168 36.46 222.67 35.168C222.194 33.876 221.956 32.1533 221.956 30C221.956 27.8467 222.205 26.124 222.704 24.832C223.202 23.54 223.905 22.6107 224.812 22.044C225.741 21.4547 226.829 21.16 228.076 21.16C228.665 21.16 229.198 21.2393 229.674 21.398C230.172 21.5567 230.603 21.7607 230.966 22.01V14.7H235.046V38.5H232.156L231.646 37.48H231.476C231.113 37.82 230.626 38.1373 230.014 38.432C229.424 38.704 228.665 38.84 227.736 38.84ZM229.096 36.46C229.526 36.46 229.878 36.392 230.15 36.256C230.444 36.0973 230.716 35.9387 230.966 35.78V24.22C230.807 24.0387 230.558 23.88 230.218 23.744C229.9 23.608 229.526 23.54 229.096 23.54C228.529 23.54 228.008 23.7213 227.532 24.084C227.078 24.4467 226.716 25.104 226.444 26.056C226.172 26.9853 226.036 28.3 226.036 30C226.036 31.7 226.172 33.0147 226.444 33.944C226.716 34.8733 227.078 35.5307 227.532 35.916C228.008 36.2787 228.529 36.46 229.096 36.46ZM244.91 38.84C243.436 38.84 242.19 38.5567 241.17 37.99C240.172 37.4007 239.413 36.46 238.892 35.168C238.37 33.876 238.11 32.1533 238.11 30C238.11 27.8467 238.37 26.124 238.892 24.832C239.413 23.54 240.172 22.6107 241.17 22.044C242.19 21.4547 243.436 21.16 244.91 21.16C246.383 21.16 247.618 21.4547 248.616 22.044C249.636 22.6107 250.406 23.54 250.928 24.832C251.449 26.124 251.71 27.8467 251.71 30C251.71 32.1533 251.449 33.876 250.928 35.168C250.406 36.46 249.636 37.4007 248.616 37.99C247.618 38.5567 246.383 38.84 244.91 38.84ZM244.91 36.63C245.431 36.63 245.896 36.4487 246.304 36.086C246.712 35.7007 247.029 35.032 247.256 34.08C247.505 33.1053 247.63 31.7453 247.63 30C247.63 28.232 247.505 26.872 247.256 25.92C247.029 24.968 246.712 24.3107 246.304 23.948C245.896 23.5627 245.431 23.37 244.91 23.37C244.411 23.37 243.946 23.5627 243.516 23.948C243.108 24.3107 242.779 24.968 242.53 25.92C242.303 26.872 242.19 28.232 242.19 30C242.19 31.7453 242.303 33.1053 242.53 34.08C242.779 35.032 243.108 35.7007 243.516 36.086C243.946 36.4487 244.411 36.63 244.91 36.63ZM254.786 38.5V21.5H258.866V38.5H254.786ZM254.786 19.46V15.38H258.866V19.46H254.786Z" fill="black"/>
</g>
</svg>
